<svg width="32" height="32" viewBox="0 0 32 32" fill="none" xmlns="http://www.w3.org/2000/svg">
<circle opacity="0.32" cx="16" cy="16" r="16" fill="#E3EDFE"/>
<path d="M17.954 15.6177L20.911 12.6607L11.36 7.29266C10.727 6.95066 10.134 6.90266 9.614 7.27666L17.954 15.6177ZM21.415 19.0797L24.489 17.3507C25.089 17.0147 25.418 16.5387 25.418 16.0107C25.418 15.4837 25.089 15.0067 24.49 14.6707L21.707 13.1077L18.574 16.2397L21.415 19.0797V19.0797ZM9.1 8.00366C9.036 8.20066 9 8.42066 9 8.66166V23.3667C9 23.7477 9.084 24.0757 9.236 24.3367L17.333 16.2387L9.1 8.00366ZM17.954 16.8587L9.902 24.9117C10.056 24.9707 10.222 25.0017 10.397 25.0017C10.709 25.0017 11.034 24.9097 11.365 24.7257L20.62 19.5287L17.954 16.8587V16.8587Z" fill="#166CF3"/>
</svg>
