<svg width="33" height="32" viewBox="0 0 33 32" fill="none" xmlns="http://www.w3.org/2000/svg">
<path fill-rule="evenodd" clip-rule="evenodd" d="M16.5 32C25.3366 32 32.5 24.8366 32.5 16C32.5 7.16344 25.3366 0 16.5 0C7.66344 0 0.5 7.16344 0.5 16C0.5 24.8366 7.66344 32 16.5 32ZM11.7636 16.3917C11.7636 13.5542 14.0536 11.2642 16.8911 11.2642C19.7286 11.2642 22.0186 13.5542 22.0186 16.3917C22.0186 19.2292 19.7286 21.5192 16.8911 21.5192C14.0536 21.5192 11.7636 19.2292 11.7636 16.3917ZM13.5586 16.3917C13.5586 18.2267 15.0561 19.7242 16.8911 19.7242C18.7261 19.7242 20.2236 18.2267 20.2236 16.3917C20.2236 14.5567 18.7261 13.0592 16.8911 13.0592C15.0561 13.0592 13.5586 14.5567 13.5586 16.3917ZM21.0311 11.0567C21.0311 10.3942 21.5661 9.85918 22.2286 9.85918C22.386 9.85898 22.5418 9.88982 22.6871 9.94993C22.8325 10.01 22.9646 10.0982 23.0758 10.2095C23.1871 10.3207 23.2753 10.4528 23.3354 10.5982C23.3955 10.7436 23.4263 10.8994 23.4261 11.0567C23.4261 11.7217 22.8911 12.2542 22.2286 12.2542C21.5661 12.2542 21.0311 11.7192 21.0311 11.0567ZM26.8865 15.8869C26.8863 16.055 26.8861 16.2233 26.8861 16.3917C26.8861 16.58 26.8864 16.7682 26.8867 16.9561C26.8885 18.1452 26.8902 19.3272 26.8211 20.5167C26.7436 22.1167 26.3811 23.5342 25.2086 24.7067C24.0386 25.8767 22.6186 26.2417 21.0186 26.3192C19.8093 26.3872 18.6076 26.3859 17.3984 26.3846C17.2303 26.3844 17.0621 26.3842 16.8936 26.3842C16.7255 26.3842 16.5576 26.3844 16.3898 26.3846C15.1822 26.3859 13.9802 26.3872 12.7686 26.3192C11.1686 26.2417 9.75113 25.8792 8.57863 24.7067C7.40863 23.5367 7.04363 22.1167 6.96613 20.5167C6.89809 19.3073 6.89942 18.1036 6.90076 16.8956C6.90095 16.7277 6.90113 16.5598 6.90113 16.3917C6.90113 16.2236 6.90095 16.0556 6.90076 15.8878C6.89942 14.6802 6.89809 13.4783 6.96613 12.2667C7.04363 10.6667 7.40613 9.24918 8.57863 8.07668C9.74863 6.90668 11.1686 6.54168 12.7686 6.46418C13.978 6.39614 15.1797 6.39747 16.3888 6.39881C16.5569 6.39899 16.7252 6.39918 16.8936 6.39918C17.0617 6.39918 17.2297 6.39899 17.3975 6.39881C18.6051 6.39747 19.807 6.39614 21.0186 6.46418C22.6186 6.54168 24.0361 6.90418 25.2086 8.07668C26.3786 9.24668 26.7436 10.6667 26.8211 12.2667C26.8892 13.4761 26.8878 14.6777 26.8865 15.8869ZM23.9311 23.4317C24.2836 23.0817 24.5036 22.7417 24.6861 22.2867C25.1355 21.1557 25.1115 18.6879 25.096 17.0921C25.0934 16.8323 25.0911 16.5957 25.0911 16.3917C25.0911 16.1871 25.0935 15.9496 25.096 15.6888C25.1116 14.0924 25.1356 11.6246 24.6886 10.4942C24.5061 10.0392 24.2861 9.70168 23.9336 9.34918C23.5836 8.99668 23.2436 8.77668 22.7886 8.59418C21.6583 8.14719 19.1904 8.17125 17.594 8.18682C17.3333 8.18936 17.0958 8.19168 16.8911 8.19168C16.6865 8.19168 16.449 8.18936 16.1883 8.18682C14.5918 8.17125 12.124 8.14719 10.9936 8.59418C10.5386 8.77668 10.2011 8.99918 9.84863 9.34918C9.49613 9.69918 9.27613 10.0392 9.09363 10.4942C8.64664 11.6246 8.67071 14.0924 8.68628 15.6888C8.68882 15.9496 8.69113 16.1871 8.69113 16.3917C8.69113 16.5963 8.68882 16.8338 8.68627 17.0945C8.67071 18.6905 8.64665 21.1567 9.09363 22.2892C9.27613 22.7442 9.49613 23.0817 9.84863 23.4342C10.1986 23.7867 10.5386 24.0067 10.9936 24.1892C12.124 24.6362 14.5918 24.6121 16.1883 24.5965C16.449 24.594 16.6865 24.5917 16.8911 24.5917C17.0951 24.5917 17.3318 24.594 17.5915 24.5965C19.1874 24.612 21.6552 24.636 22.7861 24.1867C23.2411 24.0042 23.5786 23.7842 23.9311 23.4317Z" fill="#166CF3"/>
</svg>
