<svg xmlns="http://www.w3.org/2000/svg" viewBox="0 0 527.27 211.18"><defs><style>.cls-1,.cls-2{fill:#005cb9;}.cls-2{stroke:#005cb9;stroke-miterlimit:10;stroke-width:1.64px;}</style></defs><g id="Layer_2" data-name="Layer 2"><g id="Layer_1-2" data-name="Layer 1"><path class="cls-1" d="M527.27,105.59A116.06,116.06,0,0,1,508.54,169l-9.33-6a105.65,105.65,0,0,0,0-114.76l9.33-6A116.09,116.09,0,0,1,527.27,105.59ZM410.57,0a105.59,105.59,0,1,0,88.64,163l-11.66-7.55a91.7,91.7,0,1,1,0-99.66l11.66-7.55A105.51,105.51,0,0,0,410.57,0Zm77,55.76-9.33,6a80.62,80.62,0,0,1,0,87.58l9.33,6a91.75,91.75,0,0,0,0-99.66ZM410.57,25a80.58,80.58,0,1,0,67.65,124.37l-11.67-7.55a66.69,66.69,0,1,1,0-72.48l11.67-7.55A80.53,80.53,0,0,0,410.57,25Zm56,44.34-9.33,6a55.58,55.58,0,0,1,0,60.4l9.33,6a66.72,66.72,0,0,0,0-72.48ZM410.57,50a55.57,55.57,0,1,0,46.65,85.77l-11.67-7.56a41.68,41.68,0,1,1,0-45.29l11.67-7.55A55.51,55.51,0,0,0,410.57,50Zm35,32.92-9.33,6a30.53,30.53,0,0,1,0,33.21l9.33,6a41.62,41.62,0,0,0,0-45.29Zm-35,6a16.67,16.67,0,1,0,16.67,16.67A16.67,16.67,0,0,0,410.57,88.92Z"/><path class="cls-1" d="M89.09,71.5A73.12,73.12,0,0,1,85.51,95a40.47,40.47,0,0,1-13.66,19.12q-9.31,7.07-23.07,7.06-13.56,0-21.09-9.42c-.25-.37-.51-.49-.76-.37a.74.74,0,0,0-.37.75v40.31a2.25,2.25,0,0,1-2.26,2.26h-22a2.17,2.17,0,0,1-1.6-.66,2.17,2.17,0,0,1-.66-1.6V25.16a2.19,2.19,0,0,1,.66-1.6,2.21,2.21,0,0,1,1.6-.66h22a2.23,2.23,0,0,1,1.6.66,2.19,2.19,0,0,1,.66,1.6v6.22c0,.38.12.6.37.66a.8.8,0,0,0,.76-.28Q35.6,21.4,49.54,21.4A36.07,36.07,0,0,1,72,28.65Q81.55,35.89,85.7,48.9A67.91,67.91,0,0,1,89.09,71.5Zm-27.5-.38q0-11.87-4-18.83-4.34-8.1-13.94-8.1-8.67,0-13,8.1-4,6.78-3.95,19,0,12.61,4.14,19.59,4.34,7.53,12.81,7.53a14.84,14.84,0,0,0,13.18-7.34Q61.59,83.74,61.59,71.12Z"/><path class="cls-1" d="M166.69,25.64a36,36,0,0,1,15,11.58A27.12,27.12,0,0,1,187,53.61v63.85a2.25,2.25,0,0,1-2.26,2.26h-22a2.25,2.25,0,0,1-2.26-2.26v-6.22a.74.74,0,0,0-.37-.75c-.26-.13-.51,0-.76.37q-7.91,10.36-25.42,10.36-14.7,0-23.74-7.15t-9-21.1q0-14.5,10.17-22.51t29-8h15.07a5.08,5.08,0,0,0,5.08-5.09h0q0-6.21-3.77-9.7t-11.3-3.48a20.4,20.4,0,0,0-9.7,2.07,9.71,9.71,0,0,0-5,5.84A2.15,2.15,0,0,1,128.27,54l-22.8-3c-1.5-.25-2.19-.82-2.07-1.7A25.09,25.09,0,0,1,109.71,35,36.66,36.66,0,0,1,124.4,25a55.57,55.57,0,0,1,20.44-3.58A53.57,53.57,0,0,1,166.69,25.64ZM154.82,97.11A13.39,13.39,0,0,0,160.47,86h0a7.72,7.72,0,0,0-7.72-7.72H146q-8.47,0-13.28,3.2a10.26,10.26,0,0,0-4.8,9,9.78,9.78,0,0,0,3.58,8q3.57,2.91,9.6,2.92A21.93,21.93,0,0,0,154.82,97.11Z"/><path class="cls-1" d="M201.53,156.54a3.21,3.21,0,0,1-.37-1.6V137.61a2.25,2.25,0,0,1,2.26-2.26A61.61,61.61,0,0,0,215.94,134a13.59,13.59,0,0,0,7.35-4.33q2.73-3.21,4.24-9.42a1.77,1.77,0,0,0,0-1.13l-30.89-93.8a2,2,0,0,1-.19-.94c0-1.13.69-1.69,2.07-1.69h23.54a2.49,2.49,0,0,1,2.64,1.88l15.82,61c.13.38.31.57.57.57s.43-.19.56-.57l15.82-61a2.49,2.49,0,0,1,2.64-1.88h23a1.83,1.83,0,0,1,1.6.66,2.3,2.3,0,0,1,.09,2L252.2,123.29q-4.71,13.76-9.61,20.63A28,28,0,0,1,228.84,154q-8.85,3.21-25.05,3.21h-1.31A1.1,1.1,0,0,1,201.53,156.54Z"/><path class="cls-2" d="M6.51,200.75a10,10,0,0,1-3.71-5.52,27.62,27.62,0,0,1-.73-7,28.07,28.07,0,0,1,.73-6.91,9.63,9.63,0,0,1,3.68-5.47,11,11,0,0,1,6.75-2.07,11.65,11.65,0,0,1,6.84,2,8.76,8.76,0,0,1,3.65,5,13,13,0,0,1,.34,1.57v.11c0,.26-.17.43-.51.5l-1.78.22h-.11c-.26,0-.43-.16-.51-.5L21,182A6.56,6.56,0,0,0,18.36,178a8.29,8.29,0,0,0-5.13-1.59,7.93,7.93,0,0,0-5.1,1.62,7.13,7.13,0,0,0-2.6,4.29,27.63,27.63,0,0,0-.5,6,26.39,26.39,0,0,0,.5,5.91,7.14,7.14,0,0,0,2.6,4.35,7.93,7.93,0,0,0,5.1,1.62,8.42,8.42,0,0,0,5.16-1.59,6.32,6.32,0,0,0,2.6-4l.05-.27c.08-.41.3-.58.67-.51l1.73.28c.37.08.54.28.5.62l-.22,1a8.63,8.63,0,0,1-3.65,5.1,11.78,11.78,0,0,1-6.84,2A10.88,10.88,0,0,1,6.51,200.75Z"/><path class="cls-2" d="M35.16,200.75a10.21,10.21,0,0,1-3.8-5.52,28.7,28.7,0,0,1-.61-7,27.88,27.88,0,0,1,.61-6.91,10.15,10.15,0,0,1,3.77-5.5,11.09,11.09,0,0,1,6.78-2,11,11,0,0,1,6.72,2.07,9.86,9.86,0,0,1,3.76,5.47,14.76,14.76,0,0,1,.45,2.87c.08,1.06.11,2.41.11,4s0,3.09-.11,4.13a14.92,14.92,0,0,1-.45,2.85,9.84,9.84,0,0,1-3.76,5.52,11.14,11.14,0,0,1-6.78,2.07A10.89,10.89,0,0,1,35.16,200.75Zm11.74-2.2a7.54,7.54,0,0,0,2.71-4.33,29.49,29.49,0,0,0,.38-5.91,33,33,0,0,0-.33-5.91A7.31,7.31,0,0,0,47,178.05a8.06,8.06,0,0,0-5.1-1.62,8,8,0,0,0-5.08,1.62,7.4,7.4,0,0,0-2.67,4.35,43.86,43.86,0,0,0,0,11.82,7.37,7.37,0,0,0,2.67,4.35,8,8,0,0,0,5.08,1.62A8,8,0,0,0,46.9,198.55Z"/><path class="cls-2" d="M79.76,176.48a9.34,9.34,0,0,1,2.65,6.92v18.41a.5.5,0,0,1-.56.56H80a.5.5,0,0,1-.56-.56V184a7.46,7.46,0,0,0-2-5.39,7,7,0,0,0-5.24-2.09,7.35,7.35,0,0,0-5.41,2,7.14,7.14,0,0,0-2.07,5.33v18a.49.49,0,0,1-.55.56H62.32a.49.49,0,0,1-.55-.56v-27a.49.49,0,0,1,.55-.56h1.85a.49.49,0,0,1,.55.56v2.73c0,.11,0,.18.09.2s.1,0,.14-.09a8,8,0,0,1,3.23-2.81,10.47,10.47,0,0,1,4.63-1A9.48,9.48,0,0,1,79.76,176.48Z"/><path class="cls-2" d="M102.88,176.76H96.35c-.15,0-.22.08-.22.23v17.62c0,1.9.43,3.23,1.28,4a6.08,6.08,0,0,0,4.13,1.15h1.28a.49.49,0,0,1,.56.55v1.51a.49.49,0,0,1-.56.56l-1.67,0a9.71,9.71,0,0,1-5.89-1.5q-2-1.51-2-5.52V177a.2.2,0,0,0-.22-.23H89.66a.49.49,0,0,1-.56-.56v-1.39a.5.5,0,0,1,.56-.56H93a.2.2,0,0,0,.22-.22v-6.36a.49.49,0,0,1,.56-.56h1.78a.5.5,0,0,1,.56.56V174a.19.19,0,0,0,.22.22h6.53a.5.5,0,0,1,.56.56v1.39A.49.49,0,0,1,102.88,176.76Z"/><path class="cls-2" d="M128.54,176.34a9.2,9.2,0,0,1,2.57,6.84v18.63a.5.5,0,0,1-.56.56h-1.84a.5.5,0,0,1-.56-.56v-2.62a.2.2,0,0,0-.08-.17c-.06,0-.12,0-.2.06a9.15,9.15,0,0,1-3.76,2.79,13.59,13.59,0,0,1-5.16.95,10.8,10.8,0,0,1-6.53-2,6.89,6.89,0,0,1-2.68-6,7.85,7.85,0,0,1,3.07-6.52c2-1.6,4.85-2.4,8.42-2.4h6.7c.15,0,.22-.08.22-.23v-2.51a6.89,6.89,0,0,0-1.75-5c-1.18-1.23-3-1.84-5.39-1.84a8.57,8.57,0,0,0-4.68,1.17,4.92,4.92,0,0,0-2.29,3.12.59.59,0,0,1-.67.5l-2-.27q-.61-.12-.51-.45a7.08,7.08,0,0,1,3.27-4.85,12.12,12.12,0,0,1,6.89-1.85Q126,173.8,128.54,176.34Zm-3,22.18a5.45,5.45,0,0,0,2.59-4.8v-5.08a.2.2,0,0,0-.22-.22h-6.42a11,11,0,0,0-6.38,1.67,5.33,5.33,0,0,0-2.43,4.64,4.77,4.77,0,0,0,1.9,4.12,8,8,0,0,0,4.85,1.4A10.79,10.79,0,0,0,125.56,198.52Z"/><path class="cls-2" d="M143.47,200.75a9.91,9.91,0,0,1-3.71-5.52,27.17,27.17,0,0,1-.73-7,27.6,27.6,0,0,1,.73-6.91,9.63,9.63,0,0,1,3.68-5.47,11,11,0,0,1,6.75-2.07,11.6,11.6,0,0,1,6.83,2,8.78,8.78,0,0,1,3.66,5,12.92,12.92,0,0,1,.33,1.57v.11c0,.26-.17.43-.5.5l-1.79.22h-.11c-.26,0-.43-.16-.5-.5l-.17-.78a6.54,6.54,0,0,0-2.62-3.93,8.29,8.29,0,0,0-5.13-1.59,8,8,0,0,0-5.11,1.62,7.12,7.12,0,0,0-2.59,4.29,27,27,0,0,0-.5,6,25.8,25.8,0,0,0,.5,5.91,7.12,7.12,0,0,0,2.59,4.35,8,8,0,0,0,5.11,1.62,8.42,8.42,0,0,0,5.16-1.59,6.3,6.3,0,0,0,2.59-4l.06-.27c.07-.41.3-.58.67-.51l1.73.28c.37.08.54.28.5.62l-.22,1a8.64,8.64,0,0,1-3.66,5.1,11.73,11.73,0,0,1-6.83,2A10.88,10.88,0,0,1,143.47,200.75Z"/><path class="cls-2" d="M179.92,176.76H173.4a.21.21,0,0,0-.23.23v17.62q0,2.85,1.29,4a6.05,6.05,0,0,0,4.12,1.15h1.29a.49.49,0,0,1,.56.55v1.51a.5.5,0,0,1-.56.56l-1.68,0a9.65,9.65,0,0,1-5.88-1.5q-2-1.51-2-5.52V177c0-.15-.07-.23-.22-.23H166.7a.49.49,0,0,1-.56-.56v-1.39a.5.5,0,0,1,.56-.56h3.35a.19.19,0,0,0,.22-.22v-6.36a.5.5,0,0,1,.56-.56h1.78a.49.49,0,0,1,.56.56V174c0,.15.08.22.23.22h6.52a.5.5,0,0,1,.56.56v1.39A.49.49,0,0,1,179.92,176.76Z"/><path class="cls-2" d="M188.79,201.81V163.87a.49.49,0,0,1,.56-.55h1.84a.49.49,0,0,1,.56.55v37.94a.5.5,0,0,1-.56.56h-1.84A.5.5,0,0,1,188.79,201.81Z"/><path class="cls-2" d="M216.38,199a8.24,8.24,0,0,0,2.93-3.32c.18-.33.43-.42.72-.27l1.45.72c.34.19.43.43.28.73a9.69,9.69,0,0,1-3.87,4.35,11.7,11.7,0,0,1-6.22,1.62,11.38,11.38,0,0,1-6.64-1.9,9.5,9.5,0,0,1-3.74-5.19,14.75,14.75,0,0,1-.61-3.12c-.12-1.16-.17-2.61-.17-4.36s0-3.19.08-4.12a16.08,16.08,0,0,1,.36-2.57,10,10,0,0,1,3.66-5.63,12.13,12.13,0,0,1,14.08.25,10.51,10.51,0,0,1,3.41,6.55,22.86,22.86,0,0,1,.22,2.48c0,.95.06,2.13.06,3.55a.49.49,0,0,1-.56.55H203.63c-.15,0-.22.08-.22.23a24.86,24.86,0,0,0,.28,4.74,7.14,7.14,0,0,0,2.76,4.32,8.88,8.88,0,0,0,5.44,1.59A8.14,8.14,0,0,0,216.38,199Zm-13-12.41a.19.19,0,0,0,.22.22H219.2a.19.19,0,0,0,.22-.22,22.67,22.67,0,0,0-.28-4.18,7.5,7.5,0,0,0-2.68-4.33,8.69,8.69,0,0,0-10.09,0,7.05,7.05,0,0,0-2.57,4.21A23.72,23.72,0,0,0,203.41,186.58Z"/><path class="cls-2" d="M233.84,201.67a8.65,8.65,0,0,1-3.6-2.65,5.92,5.92,0,0,1-1.28-3.68v-.73a.49.49,0,0,1,.56-.55h1.73a.49.49,0,0,1,.56.55v.62a4.27,4.27,0,0,0,2.06,3.54,8.73,8.73,0,0,0,5.24,1.48,8,8,0,0,0,5.08-1.51,4.55,4.55,0,0,0,1.95-3.74,3.46,3.46,0,0,0-1-2.56,6.89,6.89,0,0,0-2.37-1.54c-.91-.35-2.28-.81-4.1-1.36a46,46,0,0,1-5-1.79,8.85,8.85,0,0,1-3.21-2.37,5.72,5.72,0,0,1-1.31-3.88,6.49,6.49,0,0,1,2.7-5.44,11.61,11.61,0,0,1,7.12-2,13,13,0,0,1,5.21,1,8.61,8.61,0,0,1,3.52,2.65,6.21,6.21,0,0,1,1.25,3.8v.17a.49.49,0,0,1-.56.55h-1.72a.49.49,0,0,1-.56-.55v-.17a4.21,4.21,0,0,0-2-3.54,10.26,10.26,0,0,0-10.24-.12,4.1,4.1,0,0,0-1.9,3.55,3.49,3.49,0,0,0,1.76,3.18,25.28,25.28,0,0,0,5.5,2.17,45.53,45.53,0,0,1,5.16,1.79,9.67,9.67,0,0,1,3.31,2.37,5.69,5.69,0,0,1,1.4,4,6.86,6.86,0,0,1-2.71,5.66,11.29,11.29,0,0,1-7.22,2.15A13.62,13.62,0,0,1,233.84,201.67Z"/><path class="cls-2" d="M259.5,201.67a8.55,8.55,0,0,1-3.59-2.65,5.88,5.88,0,0,1-1.29-3.68v-.73a.49.49,0,0,1,.56-.55h1.73a.49.49,0,0,1,.56.55v.62a4.3,4.3,0,0,0,2.06,3.54,8.78,8.78,0,0,0,5.25,1.48,8,8,0,0,0,5.07-1.51,4.57,4.57,0,0,0,2-3.74,3.47,3.47,0,0,0-1-2.56,6.89,6.89,0,0,0-2.37-1.54c-.91-.35-2.28-.81-4.1-1.36a46.77,46.77,0,0,1-5-1.79,8.85,8.85,0,0,1-3.21-2.37,5.77,5.77,0,0,1-1.31-3.88,6.47,6.47,0,0,1,2.71-5.44,11.56,11.56,0,0,1,7.11-2,13,13,0,0,1,5.21,1,8.61,8.61,0,0,1,3.52,2.65,6.15,6.15,0,0,1,1.25,3.8v.17a.48.48,0,0,1-.55.55h-1.73a.49.49,0,0,1-.56-.55v-.17a4.21,4.21,0,0,0-2-3.54,10.26,10.26,0,0,0-10.24-.12,4.12,4.12,0,0,0-1.89,3.55,3.48,3.48,0,0,0,1.75,3.18,25.5,25.5,0,0,0,5.5,2.17,44.83,44.83,0,0,1,5.16,1.79,9.71,9.71,0,0,1,3.32,2.37,5.69,5.69,0,0,1,1.39,4,6.88,6.88,0,0,1-2.7,5.66,11.34,11.34,0,0,1-7.23,2.15A13.66,13.66,0,0,1,259.5,201.67Z"/></g></g></svg>