<svg width="32" height="32" viewBox="0 0 32 32" fill="none" xmlns="http://www.w3.org/2000/svg">
<circle opacity="0.32" cx="16" cy="16" r="16" fill="#031839"/>
<path d="M12.0956 24.8906L11.7014 25.5286L11.7014 25.5286L12.0956 24.8906ZM11.687 24.6563L11.9631 23.959L11.9631 23.959L11.687 24.6563ZM10.8537 24.6736L11.0419 25.3996L10.8537 24.6736ZM11.2418 24.589L11.2996 25.3368L11.2418 24.589ZM7.34979 21.1696L6.62378 20.9814L7.34979 21.1696ZM7.43431 20.7812L8.18211 20.8386L7.43431 20.7812ZM7.13203 19.9282L6.49502 20.3241L6.49502 20.3241L7.13203 19.9282ZM7.36627 20.3347L6.6695 20.6122L7.36627 20.3347ZM6.95298 23.5094L7.68792 23.3598L7.68792 23.3598L6.95298 23.5094ZM8.51396 25.0704L8.66353 24.3354L8.51396 25.0704ZM12.0528 17.1078C11.6386 17.1078 11.3028 17.4436 11.3028 17.8578C11.3028 18.272 11.6386 18.6078 12.0528 18.6078V17.1078ZM20.0528 18.6078C20.467 18.6078 20.8028 18.272 20.8028 17.8578C20.8028 17.4436 20.467 17.1078 20.0528 17.1078V18.6078ZM12.0528 13.1078C11.6386 13.1078 11.3028 13.4436 11.3028 13.8578C11.3028 14.272 11.6386 14.6078 12.0528 14.6078V13.1078ZM16.0528 14.6078C16.467 14.6078 16.8028 14.272 16.8028 13.8578C16.8028 13.4436 16.467 13.1078 16.0528 13.1078V14.6078ZM9.48261 9.45926C13.095 5.84691 18.9517 5.84691 22.5641 9.45926L23.6247 8.3986C19.4266 4.20047 12.6201 4.20047 8.42195 8.3986L9.48261 9.45926ZM22.5641 9.45926C26.1764 13.0716 26.1764 18.9284 22.5641 22.5407L23.6247 23.6014C27.8229 19.4033 27.8229 12.5967 23.6247 8.3986L22.5641 9.45926ZM7.76904 19.5323C6.68315 17.785 6.5484 15.8402 6.97494 14.0253C7.40407 12.1994 8.39389 10.548 9.48261 9.45926L8.42195 8.3986C7.14228 9.67827 6.00974 11.5759 5.51472 13.6821C5.01712 15.7994 5.15644 18.1701 6.49502 20.3241L7.76904 19.5323ZM22.5641 22.5407C21.5261 23.5788 19.8769 24.5687 18.0348 25.0093C16.2032 25.4475 14.2366 25.332 12.4899 24.2526L11.7014 25.5286C13.8645 26.8653 16.2614 26.9759 18.3838 26.4682C20.4958 25.963 22.3911 24.835 23.6247 23.6014L22.5641 22.5407ZM12.4899 24.2526C12.3067 24.1393 12.1241 24.0227 11.9631 23.959L11.4109 25.3536C11.3982 25.3486 11.4067 25.3505 11.463 25.3832C11.5172 25.4149 11.5891 25.4592 11.7014 25.5286L12.4899 24.2526ZM11.0419 25.3996C11.1463 25.3725 11.2082 25.3566 11.2552 25.3459C11.2994 25.3359 11.3068 25.3362 11.2996 25.3368L11.184 23.8413C11.013 23.8545 10.8347 23.9037 10.6656 23.9475L11.0419 25.3996ZM11.9631 23.959C11.6998 23.8547 11.4663 23.8194 11.184 23.8413L11.2996 25.3368C11.3424 25.3335 11.3555 25.3358 11.3566 25.336C11.3577 25.3362 11.3709 25.3378 11.4109 25.3536L11.9631 23.959ZM8.0758 21.3578C8.11965 21.1886 8.16896 21.0101 8.18211 20.8386L6.68651 20.7239C6.68706 20.7166 6.68739 20.724 6.67741 20.7682C6.66678 20.8152 6.65085 20.877 6.62378 20.9814L8.0758 21.3578ZM6.49502 20.3241C6.56432 20.4356 6.6085 20.5068 6.64002 20.5606C6.67259 20.6162 6.67448 20.6247 6.6695 20.6122L8.06305 20.0572C7.99882 19.896 7.88211 19.7143 7.76904 19.5323L6.49502 20.3241ZM8.18211 20.8386C8.2038 20.5559 8.16796 20.3207 8.06305 20.0572L6.6695 20.6122C6.68515 20.6515 6.68692 20.665 6.68717 20.6666C6.68742 20.6683 6.68974 20.6817 6.68651 20.7239L8.18211 20.8386ZM6.62378 20.9814C6.46345 21.6 6.33331 22.1005 6.25755 22.5023C6.18244 22.9006 6.14238 23.2871 6.21805 23.659L7.68792 23.3598C7.67139 23.2786 7.66672 23.1241 7.73157 22.7803C7.79576 22.4399 7.91012 21.997 8.0758 21.3578L6.62378 20.9814ZM10.6656 23.9475C10.0263 24.1132 9.58349 24.2276 9.24309 24.2918C8.89922 24.3566 8.74477 24.352 8.66353 24.3354L8.36439 25.8053C8.73623 25.881 9.12276 25.8409 9.52105 25.7658C9.92283 25.69 10.4233 25.5599 11.0419 25.3996L10.6656 23.9475ZM6.21805 23.659C6.4381 24.7402 7.28313 25.5852 8.36439 25.8053L8.66353 24.3354C8.17205 24.2354 7.78794 23.8513 7.68792 23.3598L6.21805 23.659ZM12.0528 18.6078H20.0528V17.1078H12.0528V18.6078ZM12.0528 14.6078H16.0528V13.1078H12.0528V14.6078Z" fill="white"/>
</svg>
